REM DIRINDEX 1\5,1\2\6,1\2\7,1\3\8,1\3\9,1\4\10,1\4\11,1\4\12
REM DIRNAME cjc026,folder01,folder02,folder03,folder04,folder05,folder06,folder07,folder08,folder09,folder10,folder11
TITLE ""
FILE "EJE_DB3000_5th_1A_16.mp3" MP3
  TRACK 01 AUDIO
    TITLE "0:"
    INDEX 01 00:00:00
  TRACK 02 AUDIO
    TITLE "10:cjc026_07290"
    INDEX 01 00:00:08
  TRACK 03 AUDIO
    TITLE "0:"
    INDEX 01 00:01:16
  TRACK 04 AUDIO
    TITLE "11:cjc026_07291"
    INDEX 01 00:01:54
  TRACK 05 AUDIO
    TITLE "0:"
    INDEX 01 00:04:15
  TRACK 06 AUDIO
    TITLE "12:cjc026_07292"
    INDEX 01 00:04:51
  TRACK 07 AUDIO
    TITLE "0:"
    INDEX 01 00:05:62
  TRACK 08 AUDIO
    TITLE "10:cjc026_07293"
    INDEX 01 00:06:22
  TRACK 09 AUDIO
    TITLE "0:"
    INDEX 01 00:07:50
  TRACK 10 AUDIO
    TITLE "11:cjc026_07294"
    INDEX 01 00:08:12
  TRACK 11 AUDIO
    TITLE "0:"
    INDEX 01 00:09:40
  TRACK 12 AUDIO
    TITLE "12:cjc026_07295"
    INDEX 01 00:10:00
  TRACK 13 AUDIO
    TITLE "0:"
    INDEX 01 00:11:30
  TRACK 14 AUDIO
    TITLE "10:cjc026_07296"
    INDEX 01 00:11:68
  TRACK 15 AUDIO
    TITLE "0:"
    INDEX 01 00:13:15
  TRACK 16 AUDIO
    TITLE "11:cjc026_07297"
    INDEX 01 00:13:53
  TRACK 17 AUDIO
    TITLE "0:"
    INDEX 01 00:15:06
  TRACK 18 AUDIO
    TITLE "12:cjc026_07298"
    INDEX 01 00:15:41
  TRACK 19 AUDIO
    TITLE "0:"
    INDEX 01 00:16:66
  TRACK 20 AUDIO
    TITLE "10:cjc026_07299"
    INDEX 01 00:17:26
  TRACK 21 AUDIO
    TITLE "0:"
    INDEX 01 00:18:40
  TRACK 22 AUDIO
    TITLE "11:cjc026_07300"
    INDEX 01 00:19:00
  TRACK 23 AUDIO
    TITLE "0:"
    INDEX 01 00:20:20
  TRACK 24 AUDIO
    TITLE "12:cjc026_07301"
    INDEX 01 00:20:55
  TRACK 25 AUDIO
    TITLE "0:"
    INDEX 01 00:21:69
  TRACK 26 AUDIO
    TITLE "10:cjc026_07302"
    INDEX 01 00:22:29
  TRACK 27 AUDIO
    TITLE "0:"
    INDEX 01 00:23:54
  TRACK 28 AUDIO
    TITLE "11:cjc026_07303"
    INDEX 01 00:24:14
  TRACK 29 AUDIO
    TITLE "0:"
    INDEX 01 00:25:50
  TRACK 30 AUDIO
    TITLE "12:cjc026_07304"
    INDEX 01 00:26:10
  TRACK 31 AUDIO
    TITLE "0:"
    INDEX 01 00:27:32
  TRACK 32 AUDIO
    TITLE "10:cjc026_07305"
    INDEX 01 00:27:70
  TRACK 33 AUDIO
    TITLE "0:"
    INDEX 01 00:29:12
  TRACK 34 AUDIO
    TITLE "11:cjc026_07306"
    INDEX 01 00:29:47
  TRACK 35 AUDIO
    TITLE "0:"
    INDEX 01 00:30:58
  TRACK 36 AUDIO
    TITLE "12:cjc026_07307"
    INDEX 01 00:31:21
  TRACK 37 AUDIO
    TITLE "0:"
    INDEX 01 00:32:38
  TRACK 38 AUDIO
    TITLE "10:cjc026_07308"
    INDEX 01 00:32:70
  TRACK 39 AUDIO
    TITLE "0:"
    INDEX 01 00:34:09
  TRACK 40 AUDIO
    TITLE "11:cjc026_07309"
    INDEX 01 00:34:47
  TRACK 41 AUDIO
    TITLE "0:"
    INDEX 01 00:35:66
  TRACK 42 AUDIO
    TITLE "12:cjc026_07310"
    INDEX 01 00:36:27
  TRACK 43 AUDIO
    TITLE "0:"
    INDEX 01 00:37:38
  TRACK 44 AUDIO
    TITLE "10:cjc026_07311"
    INDEX 01 00:38:01
  TRACK 45 AUDIO
    TITLE "0:"
    INDEX 01 00:39:15
  TRACK 46 AUDIO
    TITLE "11:cjc026_07312"
    INDEX 01 00:39:50
  TRACK 47 AUDIO
    TITLE "0:"
    INDEX 01 00:40:64
  TRACK 48 AUDIO
    TITLE "12:cjc026_07313"
    INDEX 01 00:41:24
  TRACK 49 AUDIO
    TITLE "0:"
    INDEX 01 00:42:38
  TRACK 50 AUDIO
    TITLE "10:cjc026_07314"
    INDEX 01 00:42:73
  TRACK 51 AUDIO
    TITLE "0:"
    INDEX 01 00:44:15
  TRACK 52 AUDIO
    TITLE "11:cjc026_07315"
    INDEX 01 00:44:50
  TRACK 53 AUDIO
    TITLE "0:"
    INDEX 01 00:46:16
  TRACK 54 AUDIO
    TITLE "12:cjc026_07316"
    INDEX 01 00:46:51
  TRACK 55 AUDIO
    TITLE "0:"
    INDEX 01 00:47:68
  TRACK 56 AUDIO
    TITLE "10:cjc026_07317"
    INDEX 01 00:48:31
  TRACK 57 AUDIO
    TITLE "0:"
    INDEX 01 00:49:42
  TRACK 58 AUDIO
    TITLE "11:cjc026_07318"
    INDEX 01 00:50:08
  TRACK 59 AUDIO
    TITLE "0:"
    INDEX 01 00:51:27
  TRACK 60 AUDIO
    TITLE "12:cjc026_07319"
    INDEX 01 00:51:63
  TRACK 61 AUDIO
    TITLE "0:"
    INDEX 01 00:53:02
  TRACK 62 AUDIO
    TITLE "10:cjc026_07320"
    INDEX 01 00:53:42
  TRACK 63 AUDIO
    TITLE "0:"
    INDEX 01 00:54:64
  TRACK 64 AUDIO
    TITLE "11:cjc026_07321"
    INDEX 01 00:55:24
  TRACK 65 AUDIO
    TITLE "0:"
    INDEX 01 00:56:49
  TRACK 66 AUDIO
    TITLE "12:cjc026_07322"
    INDEX 01 00:57:09
  TRACK 67 AUDIO
    TITLE "0:"
    INDEX 01 00:58:32
  TRACK 68 AUDIO
    TITLE "10:cjc026_07323"
    INDEX 01 00:58:69
  TRACK 69 AUDIO
    TITLE "0:"
    INDEX 01 01:00:11
  TRACK 70 AUDIO
    TITLE "11:cjc026_07324"
    INDEX 01 01:00:46
  TRACK 71 AUDIO
    TITLE "0:"
    INDEX 01 01:01:55
  TRACK 72 AUDIO
    TITLE "12:cjc026_07325"
    INDEX 01 01:02:18
  TRACK 73 AUDIO
    TITLE "0:"
    INDEX 01 01:03:35
